<svg width="107" height="107" viewBox="0 0 107 107" fill="none" xmlns="http://www.w3.org/2000/svg">
<circle cx="53.5" cy="53.5" r="53.5" fill="#B4D6F4"/>
<path d="M25.9883 50V31.5625H31.0508C32.2758 31.5625 33.3841 31.7792 34.3758 32.2125C35.3674 32.6458 36.2133 33.2625 36.9133 34.0625C37.6216 34.8625 38.1674 35.8292 38.5508 36.9625C38.9341 38.0958 39.1258 39.3625 39.1258 40.7625C39.1258 42.1708 38.9341 43.4417 38.5508 44.575C38.1674 45.7083 37.6216 46.6792 36.9133 47.4875C36.2133 48.2958 35.3674 48.9167 34.3758 49.35C33.3841 49.7833 32.2758 50 31.0508 50H25.9883ZM28.7133 49.175L27.4883 47.75H30.7258C31.8091 47.75 32.7758 47.4667 33.6258 46.9C34.4841 46.3333 35.1549 45.5292 35.6383 44.4875C36.1216 43.4375 36.3633 42.1958 36.3633 40.7625C36.3633 39.3208 36.1216 38.0833 35.6383 37.05C35.1549 36.0083 34.4841 35.2083 33.6258 34.65C32.7758 34.0917 31.8091 33.8125 30.7258 33.8125H27.4883L28.7133 32.3875V49.175ZM43.5039 33.8125L44.7289 32.3875V40.4875L44.0789 39.625H51.0664V41.875H44.0789L44.7289 41.0125V49.175L43.5039 47.75H52.4539V50H42.0039V31.5625H52.4539V33.8125H43.5039ZM57.3223 33.8125L58.5473 32.3875V40.4875L57.8973 39.625H64.8848V41.875H57.8973L58.5473 41.0125V49.175L57.3223 47.75H66.2723V50H55.8223V31.5625H66.2723V33.8125H57.3223ZM72.3531 50H69.6406V31.5625H75.1906C76.6073 31.5625 77.7948 31.8292 78.7531 32.3625C79.7198 32.8958 80.4448 33.6167 80.9281 34.525C81.4198 35.425 81.6656 36.4333 81.6656 37.55C81.6656 38.6667 81.4156 39.6958 80.9156 40.6375C80.424 41.5708 79.6948 42.3208 78.7281 42.8875C77.7615 43.4542 76.5823 43.7375 75.1906 43.7375H72.3531V50ZM72.3531 42.8125L71.1281 41.4875H74.8781C75.7615 41.4875 76.5031 41.3292 77.1031 41.0125C77.7115 40.6875 78.1698 40.2292 78.4781 39.6375C78.7865 39.0458 78.9406 38.35 78.9406 37.55C78.9406 36.75 78.7906 36.0708 78.4906 35.5125C78.1906 34.9542 77.7406 34.5333 77.1406 34.25C76.5406 33.9583 75.7865 33.8125 74.8781 33.8125H71.1281L72.3531 32.3875V42.8125ZM17.6244 59.8125L18.8494 58.3875V66.5875L17.9994 65.8125H25.4869V68.0625H17.9994L18.8494 67.2375V76H16.1494V57.5625H26.5994V59.8125H17.6244ZM35.3361 76.2625C34.2361 76.2625 33.2195 76.0542 32.2861 75.6375C31.3611 75.2125 30.5486 74.5958 29.8486 73.7875C29.157 72.9708 28.6195 71.975 28.2361 70.8C27.8528 69.6167 27.6611 68.2708 27.6611 66.7625C27.6611 65.2458 27.8528 63.9042 28.2361 62.7375C28.6195 61.5625 29.157 60.575 29.8486 59.775C30.5486 58.9667 31.3653 58.3583 32.2986 57.95C33.232 57.5333 34.2445 57.325 35.3361 57.325C36.4361 57.325 37.4528 57.5333 38.3861 57.95C39.3278 58.3583 40.1445 58.9667 40.8361 59.775C41.5278 60.575 42.0653 61.5625 42.4486 62.7375C42.832 63.9042 43.0236 65.2458 43.0236 66.7625C43.0236 68.2708 42.832 69.6167 42.4486 70.8C42.0653 71.975 41.5236 72.9708 40.8236 73.7875C40.132 74.5958 39.3195 75.2125 38.3861 75.6375C37.4528 76.0542 36.4361 76.2625 35.3361 76.2625ZM35.3361 73.95C36.2778 73.95 37.1195 73.6917 37.8611 73.175C38.6111 72.6583 39.1986 71.8708 39.6236 70.8125C40.0486 69.7458 40.2611 68.3958 40.2611 66.7625C40.2611 65.1208 40.0445 63.775 39.6111 62.725C39.1861 61.675 38.6028 60.9 37.8611 60.4C37.1195 59.9 36.2778 59.65 35.3361 59.65C34.4111 59.65 33.5736 59.9 32.8236 60.4C32.082 60.9 31.4945 61.675 31.0611 62.725C30.6278 63.775 30.4111 65.1208 30.4111 66.7625C30.4111 68.4042 30.6278 69.7583 31.0611 70.825C31.4945 71.8833 32.082 72.6708 32.8236 73.1875C33.5736 73.6958 34.4111 73.95 35.3361 73.95ZM59.9602 69.475C59.9602 70.2417 59.8185 71.0208 59.5352 71.8125C59.2518 72.6042 58.8227 73.3375 58.2477 74.0125C57.6727 74.6875 56.9477 75.2333 56.0727 75.65C55.1977 76.0583 54.1685 76.2625 52.9852 76.2625C51.3768 76.2625 50.006 75.8583 48.8727 75.05C47.7477 74.2333 46.8893 73.1125 46.2977 71.6875C45.706 70.2625 45.4102 68.6292 45.4102 66.7875C45.4102 64.9375 45.706 63.3042 46.2977 61.8875C46.8893 60.4625 47.7477 59.3458 48.8727 58.5375C50.006 57.7292 51.3768 57.325 52.9852 57.325C54.3268 57.325 55.4685 57.5875 56.4102 58.1125C57.3602 58.6375 58.1143 59.3125 58.6727 60.1375C59.2393 60.9625 59.6143 61.8208 59.7977 62.7125C59.906 63.1958 59.9602 63.6542 59.9602 64.0875H57.2352C57.2352 63.8542 57.2143 63.6 57.1727 63.325C57.081 62.6583 56.856 62.0458 56.4977 61.4875C56.1477 60.9292 55.6768 60.4833 55.0852 60.15C54.5018 59.8167 53.8018 59.65 52.9852 59.65C52.0352 59.65 51.1977 59.9167 50.4727 60.45C49.7477 60.975 49.181 61.7667 48.7727 62.825C48.3727 63.8833 48.1727 65.2042 48.1727 66.7875C48.1727 68.3625 48.3727 69.6833 48.7727 70.75C49.181 71.8083 49.7477 72.6083 50.4727 73.15C51.1977 73.6833 52.0352 73.95 52.9852 73.95C53.6768 73.95 54.2852 73.825 54.8102 73.575C55.3352 73.325 55.7768 72.9875 56.1352 72.5625C56.4935 72.1375 56.7643 71.6583 56.9477 71.125C57.1393 70.5917 57.2352 70.0417 57.2352 69.475H59.9602ZM75.8791 69.25C75.8791 71.6167 75.2999 73.3792 74.1416 74.5375C72.9833 75.6875 71.3833 76.2625 69.3416 76.2625C67.3083 76.2625 65.7124 75.6875 64.5541 74.5375C63.4041 73.3792 62.8291 71.6167 62.8291 69.25C62.8291 68.9 62.8291 68.5292 62.8291 68.1375C62.8291 67.7375 62.8291 67.3208 62.8291 66.8875V57.5625H65.5416V67.1875C65.5416 67.5875 65.5416 67.9583 65.5416 68.3C65.5416 68.6417 65.5416 68.9542 65.5416 69.2375C65.5416 70.9042 65.8583 72.1083 66.4916 72.85C67.1249 73.5833 68.0749 73.95 69.3416 73.95C70.6166 73.95 71.5708 73.5833 72.2041 72.85C72.8458 72.1083 73.1666 70.9042 73.1666 69.2375V57.5625H75.8791V69.25ZM85.0598 76.2625C83.7598 76.2625 82.6389 76.0583 81.6973 75.65C80.7639 75.2417 80.0389 74.625 79.5223 73.8C79.0139 72.9667 78.7598 71.9375 78.7598 70.7125C78.7598 70.5542 78.7598 70.4167 78.7598 70.3C78.7598 70.1833 78.7598 70.05 78.7598 69.9H81.4723C81.4723 70.0417 81.4723 70.1667 81.4723 70.275C81.4723 70.375 81.4723 70.5042 81.4723 70.6625C81.4723 71.7958 81.7764 72.6292 82.3848 73.1625C82.9931 73.6875 83.8806 73.95 85.0473 73.95C86.2389 73.95 87.1473 73.75 87.7723 73.35C88.3973 72.9417 88.7098 72.2875 88.7098 71.3875C88.7098 70.7458 88.5139 70.2083 88.1223 69.775C87.7389 69.3333 87.2056 68.9542 86.5223 68.6375C85.8473 68.3208 85.0681 68.025 84.1848 67.75C83.1931 67.4417 82.2973 67.05 81.4973 66.575C80.6973 66.0917 80.0598 65.4917 79.5848 64.775C79.1181 64.05 78.8848 63.1667 78.8848 62.125C78.8848 61.1 79.1431 60.2292 79.6598 59.5125C80.1764 58.7958 80.8931 58.2542 81.8098 57.8875C82.7264 57.5125 83.7764 57.325 84.9598 57.325C86.2181 57.325 87.3139 57.5208 88.2473 57.9125C89.1889 58.2958 89.9181 58.8792 90.4348 59.6625C90.9598 60.4375 91.2223 61.4167 91.2223 62.6C91.2223 62.7667 91.2223 62.9125 91.2223 63.0375C91.2223 63.1542 91.2223 63.3 91.2223 63.475H88.4973C88.4973 63.3333 88.4973 63.2042 88.4973 63.0875C88.4973 62.9708 88.4973 62.8458 88.4973 62.7125C88.4973 61.6292 88.2014 60.8458 87.6098 60.3625C87.0264 59.8792 86.1598 59.6375 85.0098 59.6375C83.8931 59.6375 83.0306 59.8333 82.4223 60.225C81.8223 60.6167 81.5223 61.25 81.5223 62.125C81.5223 62.775 81.7139 63.3167 82.0973 63.75C82.4889 64.1833 83.0223 64.5542 83.6973 64.8625C84.3806 65.1708 85.1556 65.4708 86.0223 65.7625C87.1223 66.1292 88.0681 66.5417 88.8598 67C89.6598 67.4583 90.2764 68.0292 90.7098 68.7125C91.1431 69.3958 91.3598 70.2583 91.3598 71.3C91.3598 72.35 91.1014 73.2458 90.5848 73.9875C90.0681 74.7292 89.3389 75.2958 88.3973 75.6875C87.4556 76.0708 86.3431 76.2625 85.0598 76.2625Z" fill="#2B503E"/>
</svg>
